# xmcd
#
# Track frame offsets:
#  150
#  12325
#  23190
#  37075
#  53085
#  64317
#  77087
#  89032
#  100090
#  111220
#  122627
#  134157
#  146540
#  157325
#  167930
#  177622
#
# Disc length: 2513 seconds
#
# Revision: 1
# Processed by: cddbd v1.5.2PL0 Copyright (c) Steve Scherf et al.
# Submitted via: Collectorz.com_Music_Collector 6.11
#
DISCID=ef09cf10
DTITLE=Brenda Lee - Classic
DYEAR=2000
DGENRE=Oldies - Pop
TTITLE0=I'm Sorry
TTITLE1=Sweet Nothin's
TTITLE2=I Want To Be Wanted
TTITLE3=You Can Depend On Me
TTITLE4=That's All You Gotta Do
TTITLE5=Emotions
TTITLE6=Break It To Me Gently
TTITLE7=Dum Dum
TTITLE8=Fool #1
TTITLE9=Everybody Loves Me But You
TTITLE10=Losing You
TTITLE11=All Alone Am I
TTITLE12=Bill Bailey, Won't You Please Come Home
TTITLE13=It's Never Too Late
TTITLE14=Jambalaya (On The Bayou)
TTITLE15=Little Jonah (Rock On Your SteeL Guitar)
EXTD=
EXTT0=
EXTT1=
EXTT2=
EXTT3=
EXTT4=
EXTT5=
EXTT6=
EXTT7=
EXTT8=
EXTT9=
EXTT10=
EXTT11=
EXTT12=
EXTT13=
EXTT14=
EXTT15=
PLAYORDER=
